<svg width="51" height="51" viewBox="0 0 51 51" fill="none" xmlns="http://www.w3.org/2000/svg">
<path d="M50.6235 25.8027C50.6235 39.6099 39.4307 50.8027 25.6235 50.8027C11.8164 50.8027 0.623535 39.6099 0.623535 25.8027C0.623535 11.9956 11.8164 0.802734 25.6235 0.802734C39.4307 0.802734 50.6235 11.9956 50.6235 25.8027Z" fill="url(#paint0_linear_70824_5)"/>
<g clip-path="url(#clip0_70824_5)">
<path fill-rule="evenodd" clip-rule="evenodd" d="M34.986 28.5604C34.986 28.5604 36.9264 30.4768 37.4064 31.3636C37.4158 31.3764 37.4231 31.3905 37.428 31.4056C37.6236 31.7332 37.6716 31.99 37.5756 32.1796C37.4136 32.4928 36.8652 32.65 36.6792 32.6632H33.2496C33.0108 32.6632 32.514 32.6008 31.9092 32.1832C31.4472 31.8604 30.9876 31.3288 30.5424 30.8092C29.8776 30.0376 29.3028 29.368 28.7208 29.368C28.6473 29.3678 28.5743 29.38 28.5048 29.404C28.0644 29.5432 27.5052 30.1708 27.5052 31.8424C27.5052 32.3656 27.0924 32.6632 26.8032 32.6632H25.2324C24.6972 32.6632 21.9108 32.476 19.44 29.8708C16.4124 26.6812 13.6932 20.2828 13.6668 20.2264C13.4976 19.8124 13.8528 19.5868 14.2368 19.5868H17.7C18.1644 19.5868 18.3156 19.8676 18.4212 20.1196C18.5436 20.4088 18.9972 21.5656 19.7412 22.8652C20.946 24.9796 21.6864 25.84 22.278 25.84C22.3892 25.8403 22.4985 25.8113 22.5948 25.756C23.3676 25.3312 23.2236 22.5712 23.1876 22.0024C23.1876 21.892 23.1864 20.77 22.7904 20.2276C22.5072 19.8388 22.0248 19.6876 21.7332 19.6324C21.8112 19.5196 21.9768 19.3468 22.1892 19.2448C22.7184 18.9808 23.6748 18.9424 24.624 18.9424H25.1508C26.1804 18.9568 26.4468 19.0228 26.8212 19.1176C27.5748 19.2976 27.5892 19.786 27.5232 21.4492C27.504 21.9244 27.4836 22.4596 27.4836 23.0896C27.4836 23.224 27.4776 23.374 27.4776 23.5264C27.4548 24.3796 27.4248 25.3408 28.0272 25.7356C28.1054 25.7843 28.1956 25.81 28.2876 25.81C28.4964 25.81 29.1216 25.81 30.8172 22.9C31.5612 21.6148 32.1372 20.0992 32.1768 19.9852C32.2104 19.9216 32.3112 19.7428 32.4336 19.6708C32.5207 19.6245 32.6182 19.6013 32.7168 19.6036H36.7908C37.2348 19.6036 37.536 19.6708 37.5948 19.8388C37.6932 20.1112 37.5756 20.9428 35.7156 23.458C35.4024 23.8768 35.1276 24.2392 34.8864 24.556C33.2004 26.7688 33.2004 26.8804 34.986 28.5604V28.5604Z" fill="white"/>
</g>
<defs>
<linearGradient id="paint0_linear_70824_5" x1="5.73403" y1="0.802729" x2="48.8622" y2="4.01739" gradientUnits="userSpaceOnUse">
<stop stop-color="#C89AFC"/>
<stop offset="1" stop-color="#7C6AFA"/>
</linearGradient>
<clipPath id="clip0_70824_5">
<rect x="13.6235" y="13.8027" width="24" height="24" fill="white"/>
</clipPath>
</defs>
</svg>
